.
..............................Site Info...........................

 -   http://www.scenetime.com  *_*   

SceneTime is going to Close sign up on march/1, hurry up! get in before the doors are closed.

     We care to share . Join us on  http://www.scenetime.com 

    Be the first to get new release at  http://www.scenetime.com

        Seed back for speed


...................................NFO:.................................................[IMG]http://img210.imageshack.us/img210/6959/demonsa.jpg[/IMG]


[color=blue][size=5][b]Demons.Never.Die.2011.BDRip.XVID.AC3.HQ.Hive-CM8[/b][/size][/color]


[b] Thx Hive

CM8 Doing it right the first time :D

Source: Bluray

Video: 720x304 @bitrate 1700 2pass
Audio: English DTS to AC3 5.1 @384
Sample: yes included[/b]


[url]http://www.imdb.com/title/tt1777612/[/url]


General
Complete name                  : Demons.Never.Die.2011.BDRip.XVID.AC3.HQ.Hive-CM8.avi
Format                         : AVI
Format/Info                    : Audio Video Interleave
File size                      : 1.36 GiB
Duration                       : 1h 33mn
Overall bit rate               : 2 093 Kbps
Writing application            : Nandub v1.0rc2
Writing library                : Nandub build 1853/release

Video
ID                             : 0
Format                         : MPEG-4 Visual
Format profile                 : Advanced Simple@L5
Format settings, BVOP          : 1
Format settings, QPel          : Yes
Format settings, GMC           : No warppoints
Format settings, Matrix        : Default (H.263)
Muxing mode                    : Packed bitstream
Codec ID                       : XVID
Codec ID/Hint                  : XviD
Duration                       : 1h 33mn
Bit rate                       : 1 700 Kbps
Width                          : 720 pixels
Height                         : 304 pixels
Display aspect ratio           : 2.35:1
Frame rate                     : 24.000 fps
Color space                    : YUV
Chroma subsampling             : 4:2:0
Bit depth                      : 8 bits
Scan type                      : Progressive
Compression mode               : Lossy
Bits/(Pixel*Frame)             : 0.324
Stream size                    : 1.10 GiB (81%)
Writing library                : XviD 1.2.1 (UTC 2008-12-04)

Audio
ID                             : 1
Format                         : AC-3
Format/Info                    : Audio Coding 3
Mode extension                 : CM (complete main)
Codec ID                       : 2000
Duration                       : 1h 33mn
Bit rate mode                  : Constant
Bit rate                       : 384 Kbps
Channel(s)                     : 6 channels
Channel positions              : Front: L C R, Side: L R, LFE
Sampling rate                  : 48.0 KHz
Bit depth                      : 16 bits
Compression mode               : Lossy
Stream size                    : 255 MiB (18%)
Alignment                      : Split accross interleaves
Interleave, duration           : 42 ms (1.00 video frame)
Interleave, preload duration   : 500 ms



When a young girl takes her own life, Archie and the other Suicide Kids decide to follow her lead and 
form a pact. But as the group begin to die one by one, Archie realizes that they have all become the 
target of a masked killer and that his commitment to death has become a terrifying fight for survival 
and a battle to protect the girl he loves. But who's the killer? 


Robert Sheehan	... 	Archie
Ashley Walters	... 	Bates
Tulisa Contostavlos	... 	Amber
Jason Maza	... 	Kenny
Reggie Yates	... 	Mason


[img]http://img41.imageshack.us/img41/1/ddeddedeededededee.png[/img]
[img]http://img833.imageshack.us/img833/2162/ddeddedeedededee.png[/img]
[img]http://img694.imageshack.us/img694/541/ddeddedeededee.png[/img]
[img]http://img846.imageshack.us/img846/3852/ddeddedeedee.png[/img]
[img]http://img839.imageshack.us/img839/7682/ddeddedeee.png[/img]
[img]http://img685.imageshack.us/img685/7930/ddeddeee.png[/img]
[img]http://img651.imageshack.us/img651/5649/ddedee.png[/img]
[img]http://img96.imageshack.us/img96/239/ddee.png[/img]
[img]http://img194.imageshack.us/img194/4779/23774605.png[/img]




Greetz

ViSiON,SPK,SceneLovers,PRESTiGE,SANTi,3LT0N,YanKeeS,MAGNET,THC,T0XiC,LKRG,Feel-Free,FLAWL3SS,
WBZ,BHRG,26K,NOVA,D2U,TED,COPYxRIGHT,jtr,Rapeseed,SAFC,goldadvance,KaN1vE,Unevano,Pinnz,Wayne
Mr Hive,and most P2P groups
Great Work Guys :D


LOOKING FOR ANYTHING YOU WANT TO LOOK AND SOUND BETTER

CM8@hushmail.com